# Blender 5.1.1
# www.blender.org
mtllib Cubo_torto.mtl
o Cube
v 1.000000 1.335175 -2.077347
v 1.000000 -1.000000 -1.000000
v 1.000000 0.688767 0.640884
v 1.694290 -1.287292 1.000000
v -1.622467 1.383057 -1.000000
v -1.000000 -1.000000 -1.000000
v -1.000000 1.000000 1.000000
v -1.000000 -1.000000 1.000000
vn 0.1121 0.9667 0.2299
vn 0.0198 0.1855 0.9824
vn -1.0000 -0.0000 -0.0000
vn -0.0000 -1.0000 -0.0000
vn 0.9204 0.2724 -0.2804
vn -0.0000 -0.4189 -0.9080
vn 0.1756 0.9756 0.1322
vn 0.1767 -0.0000 0.9843
vn -0.9380 -0.2450 0.2450
vn -0.1054 -0.9888 -0.1054
vn 1.0000 -0.0000 -0.0000
vn -0.3797 -0.0992 -0.9198
vt 0.875000 0.500000
vt 0.625000 0.750000
vt 0.625000 0.500000
vt 0.375000 1.000000
vt 0.375000 0.750000
vt 0.625000 0.000000
vt 0.375000 0.250000
vt 0.375000 0.000000
vt 0.375000 0.500000
vt 0.125000 0.750000
vt 0.125000 0.500000
vt 0.875000 0.750000
vt 0.625000 1.000000
vt 0.625000 0.250000
s 0
usemtl Material
f 5/1/1 3/2/1 1/3/1
f 3/2/2 8/4/2 4/5/2
f 7/6/3 6/7/3 8/8/3
f 2/9/4 8/10/4 6/11/4
f 2/9/5 3/2/5 4/5/5
f 6/7/6 1/3/6 2/9/6
f 5/1/7 7/12/7 3/2/7
f 3/2/8 7/13/8 8/4/8
f 7/6/9 5/14/9 6/7/9
f 2/9/10 4/5/10 8/10/10
f 2/9/11 1/3/11 3/2/11
f 6/7/12 5/14/12 1/3/12
